ply
format ascii 1.0
comment Generated by PyMesh
element vertex 22
property float x
property float y
property float z
property float charge
property float hbond
property float hphob
property float iface
property float nx
property float ny
property float nz
element face 40
property list uchar int vertex_indices
end_header
14.2455 27.231 19.2337 -2.78425 0 4.5 0 0.625257 -0.484153 -0.612086
12.0425 29.1567 19.4683 2.63532 0 4.5 0 -0.668384 0.630979 -0.393863
13.73 29.5775 20.82 0.808346 0 4.5 0 0.234965 0.905388 0.353644
14.2455 28.2435 18.94 -2.04857 0 4.5 0 0.674438 0.163213 -0.720066
12.0425 28.2435 18.94 -0.0661332 0 4.5 0 -0.695902 0.0770386 -0.713992
13.144 26.845 19.0695 -3.80711 0 4.5 0 -0.0101594 -0.819152 -0.573486
13.144 29.105 18.86 -0.103062 0 4.5 0 0.0281664 0.594028 -0.803951
13.144 27.9345 18.527 -4.6405 0 4.5 0 -0.0314181 -0.183422 -0.982532
13.144 29.746 19.8945 0.325936 0 4.5 0 -0.0426948 0.979235 -0.198183
13.072 29.0285 21.626 0.924342 0 4.5 0 -0.152702 0.695799 0.701816
12.6757 26.4807 20.9356 -0.354598 0 4.5 0 -0.493042 -0.857645 0.14613
12.0425 29.2796 20.5719 4.29902 0 4.5 0 -0.583038 0.736729 0.342486
14.2455 29.2796 19.8361 0.131511 0 4.5 0 0.70824 0.666475 -0.232825
12.0425 27.0238 19.5619 -0.17188 0 4.5 0 -0.692492 -0.558132 -0.457102
14.8186 27.8416 20.3008 -0.236497 0 4.5 0 0.988498 -0.127278 -0.0816825
14.0918 26.5969 20.4146 -0.599395 0 4.5 0 0.477963 -0.859671 -0.180327
13.4751 28.1979 22.3886 -0.452101 0 4.5 0 -0.0297925 0.334034 0.94209
13.1025 27.051 22.342 -0.58457 0 4.5 0 -0.119291 -0.40788 0.905209
13.9755 26.4844 21.7708 -0.789703 0 4.5 0 0.561087 -0.711519 0.42299
12.252 27.8634 21.6816 -0.445241 0 4.5 0 -0.74533 0.0796992 0.661914
14.4769 28.368 21.6076 -0.731246 0 4.5 0 0.741304 0.312893 0.593773
11.5779 28.3179 20.5226 1.68338 0 4.5 0 -0.995401 -0.0191632 0.093856
3 19 16 9
3 16 20 9
3 14 20 18
3 20 16 17
3 18 20 17
3 18 17 10
3 10 15 18
3 18 15 14
3 16 19 17
3 17 19 10
3 14 0 3
3 14 3 12
3 0 5 7
3 3 0 7
3 3 7 6
3 12 3 6
3 12 6 8
3 12 8 2
3 2 8 11
3 9 2 11
3 5 10 13
3 7 5 13
3 7 13 4
3 6 7 4
3 6 4 1
3 8 6 1
3 11 8 1
3 13 10 21
3 4 13 21
3 1 4 21
3 11 1 21
3 21 10 19
3 21 19 11
3 11 19 9
3 2 9 20
3 2 20 12
3 12 20 14
3 14 15 0
3 0 15 5
3 5 15 10
